<svg width="207" height="198" viewBox="0 0 207 198" fill="none" xmlns="http://www.w3.org/2000/svg">
<path d="M33 141.786L33.8602 188.929H40.7417L42.462 165.786V153.786L54 141.786V149L56.225 153.786L58.8056 168.357L66.5472 188.929H73.4287V183.786L66.5472 169.214L68.2676 152.071L83.751 131.5L86.3315 122.929L103.535 127.214L123.319 128.929L126.76 146.929L136.222 169.214L139.663 195.786H145.684V190.643C145.684 190.643 145.684 165.786 144.824 164.071C143.964 162.357 139.663 153.786 139.663 152.071C139.663 150.357 141.383 134.071 141.383 134.071H145.684L147.405 155.5L150.845 168.357V197.5H156.007V172.643L158.587 157.214V143.5L160.307 128.929L168.049 117.786C168.049 117.786 169.77 113.5 170.63 110.929C171.49 108.357 172.35 98.0714 172.35 98.0714V86.9286L177.511 74.0714L179.232 62.9286V49.2143L183.533 44.9286C185.253 43.2143 184.393 35.5 184.393 35.5C184.393 35.5 186.973 26.9286 188.694 26.0714C190.414 25.2143 196.28 23.3571 198 22.5C199.72 21.6429 205.14 16.7143 206 15C206.86 13.2857 207 6 207 6C207 6 198.72 8.14286 197 9C195.28 9.85714 187.5 16.6429 187.5 16.6429L181 17.5L172.35 19.2143H164.608L157.5 17.5L151.706 16.6429C151.706 16.6429 146.545 8.07141 145.684 7.21427C144.824 6.35713 133.642 7.21429 133.642 7.21429C133.642 7.21429 138.803 20.0714 139.663 21.7857C140.523 23.5 150.845 26.0714 150.845 26.0714L156.007 34.6429V48.5L153 62.9286L133 64.5L112.997 62.9286L89.7723 55.2143C89.7723 55.2143 79.45 51.7857 68.2676 52.6429C57.0852 53.5 42.462 68.9286 40.7417 70.6429C39.0213 72.3571 39.0213 87.7857 39.0213 89.5C39.0213 91.2143 47.6232 108.357 47.6232 110.929C47.6232 113.5 48.4833 122.071 47.6232 124.643C46.763 127.214 33 141.786 33 141.786Z" fill="#002308"/>
<path d="M0 135.786L0.860186 182.929H7.74167L9.46204 159.786V147.786L21 135.786V143L23.225 147.786L25.8056 162.357L33.5472 182.929H40.4287V177.786L33.5472 163.214L35.2676 146.071L50.751 125.5L53.3315 116.929L70.5352 121.214L90.3195 122.929L93.7602 140.929L103.222 163.214L106.663 189.786H112.684V184.643C112.684 184.643 112.684 159.786 111.824 158.071C110.964 156.357 106.663 147.786 106.663 146.071C106.663 144.357 108.383 128.071 108.383 128.071H112.684L114.405 149.5L117.845 162.357V191.5H123.007V166.643L125.587 151.214V137.5L127.307 122.929L135.049 111.786C135.049 111.786 136.77 107.5 137.63 104.929C138.49 102.357 139.35 92.0714 139.35 92.0714V80.9286L144.511 68.0714L146.232 56.9286V43.2143L150.533 38.9286C152.253 37.2143 151.393 29.5 151.393 29.5C151.393 29.5 153.973 20.9286 155.694 20.0714C157.414 19.2143 163.28 17.3571 165 16.5C166.72 15.6429 172.14 10.7143 173 9C173.86 7.28571 174 0 174 0C174 0 165.72 2.14286 164 3C162.28 3.85714 154.5 10.6429 154.5 10.6429L148 11.5L139.35 13.2143H131.608L124.5 11.5L118.706 10.6429C118.706 10.6429 113.545 2.07141 112.684 1.21427C111.824 0.357126 100.642 1.21429 100.642 1.21429C100.642 1.21429 105.803 14.0714 106.663 15.7857C107.523 17.5 117.845 20.0714 117.845 20.0714L123.007 28.6429V42.5L120 56.9286L100 58.5L79.9973 56.9286L56.7723 49.2143C56.7723 49.2143 46.45 45.7857 35.2676 46.6429C24.0852 47.5 9.46204 62.9286 7.74167 64.6429C6.0213 66.3571 6.0213 81.7857 6.0213 83.5C6.0213 85.2143 14.6232 102.357 14.6232 104.929C14.6232 107.5 15.4833 116.071 14.6232 118.643C13.763 121.214 0 135.786 0 135.786Z" fill="#D1D1D1"/>
</svg>
