<svg width="174" height="192" viewBox="0 0 174 192" fill="none" xmlns="http://www.w3.org/2000/svg">
<path d="M0 135.786L0.860186 182.929H7.74167L9.46204 159.786V147.786L21 135.786V143L23.225 147.786L25.8056 162.357L33.5472 182.929H40.4287V177.786L33.5472 163.214L35.2676 146.071L50.751 125.5L53.3315 116.929L70.5352 121.214L90.3195 122.929L93.7602 140.929L103.222 163.214L106.663 189.786H112.684V184.643C112.684 184.643 112.684 159.786 111.824 158.071C110.964 156.357 106.663 147.786 106.663 146.071C106.663 144.357 108.383 128.071 108.383 128.071H112.684L114.405 149.5L117.845 162.357V191.5H123.007V166.643L125.587 151.214V137.5L127.307 122.929L135.049 111.786C135.049 111.786 136.77 107.5 137.63 104.929C138.49 102.357 139.35 92.0714 139.35 92.0714V80.9286L144.511 68.0714L146.232 56.9286V43.2143L150.533 38.9286C152.253 37.2143 151.393 29.5 151.393 29.5C151.393 29.5 153.973 20.9286 155.694 20.0714C157.414 19.2143 163.28 17.3571 165 16.5C166.72 15.6429 172.14 10.7143 173 9C173.86 7.28571 174 0 174 0C174 0 165.72 2.14286 164 3C162.28 3.85714 154.5 10.6429 154.5 10.6429L148 11.5L139.35 13.2143H131.608L124.5 11.5L118.706 10.6429C118.706 10.6429 113.545 2.07141 112.684 1.21427C111.824 0.357126 100.642 1.21429 100.642 1.21429C100.642 1.21429 105.803 14.0714 106.663 15.7857C107.523 17.5 117.845 20.0714 117.845 20.0714L123.007 28.6429V42.5L120 56.9286L100 58.5L79.9973 56.9286L56.7723 49.2143C56.7723 49.2143 46.45 45.7857 35.2676 46.6429C24.0852 47.5 9.46204 62.9286 7.74167 64.6429C6.0213 66.3571 6.0213 81.7857 6.0213 83.5C6.0213 85.2143 14.6232 102.357 14.6232 104.929C14.6232 107.5 15.4833 116.071 14.6232 118.643C13.763 121.214 0 135.786 0 135.786Z" fill="#002308"/>
</svg>
