<svg width="40" height="40" viewBox="0 0 40 40" fill="none" xmlns="http://www.w3.org/2000/svg">
<path d="M26.6668 36.6667V30.2167C26.7293 29.4219 26.622 28.623 26.3519 27.873C26.0817 27.123 25.655 26.439 25.1002 25.8667C30.3335 25.2833 35.8335 23.3 35.8335 14.2C35.8331 11.873 34.938 9.63533 33.3335 7.95C34.0933 5.91418 34.0395 3.66391 33.1835 1.66666C33.1835 1.66666 31.2168 1.08333 26.6668 4.13333C22.8468 3.09803 18.8201 3.09803 15.0002 4.13333C10.4502 1.08333 8.4835 1.66666 8.4835 1.66666C7.62746 3.66391 7.57374 5.91418 8.3335 7.95C6.71704 9.64783 5.82103 11.9058 5.8335 14.25C5.8335 23.2833 11.3335 25.2667 16.5668 25.9167C16.0185 26.4833 15.5956 27.159 15.3257 27.8999C15.0558 28.6407 14.9448 29.4301 15.0002 30.2167V36.6667M15.0002 31.6667C6.66683 34.1667 6.66683 27.5 3.3335 26.6667L15.0002 31.6667Z" stroke="white" stroke-width="2.66667" stroke-linecap="round" stroke-linejoin="round"/>
</svg>
