<svg width="40" height="40" viewBox="0 0 40 40" fill="none" xmlns="http://www.w3.org/2000/svg">
<path d="M26.6665 13.3333C29.3187 13.3333 31.8622 14.3869 33.7376 16.2622C35.6129 18.1376 36.6665 20.6811 36.6665 23.3333V35H29.9998V23.3333C29.9998 22.4493 29.6486 21.6014 29.0235 20.9763C28.3984 20.3512 27.5506 20 26.6665 20C25.7824 20 24.9346 20.3512 24.3095 20.9763C23.6844 21.6014 23.3332 22.4493 23.3332 23.3333V35H16.6665V23.3333C16.6665 20.6811 17.7201 18.1376 19.5954 16.2622C21.4708 14.3869 24.0143 13.3333 26.6665 13.3333V13.3333Z" stroke="white" stroke-width="2.66667" stroke-linecap="round" stroke-linejoin="round"/>
<path d="M10.0002 15H3.3335V35H10.0002V15Z" stroke="white" stroke-width="2.66667" stroke-linecap="round" stroke-linejoin="round"/>
<path d="M6.66683 9.99998C8.50778 9.99998 10.0002 8.5076 10.0002 6.66665C10.0002 4.8257 8.50778 3.33331 6.66683 3.33331C4.82588 3.33331 3.3335 4.8257 3.3335 6.66665C3.3335 8.5076 4.82588 9.99998 6.66683 9.99998Z" stroke="white" stroke-width="2.66667" stroke-linecap="round" stroke-linejoin="round"/>
</svg>
